<svg width="137" height="144" viewBox="0 0 137 144" fill="none" xmlns="http://www.w3.org/2000/svg">
<path d="M115.523 115.522C124.823 106.222 131.156 94.3729 133.722 81.4732C136.288 68.5735 134.971 55.2026 129.938 43.0513C124.905 30.9001 116.381 20.5143 105.445 13.2072C94.5095 5.90013 81.6524 2 68.5 2C55.3476 2 42.4905 5.90013 31.5547 13.2072C20.6188 20.5143 12.0954 30.9001 7.06212 43.0513C2.02887 55.2026 0.711899 68.5735 3.27775 81.4732C5.8436 94.3729 12.177 106.222 21.4771 115.522" stroke="#0075FF" stroke-width="3" stroke-linecap="round" stroke-linejoin="round"/>
<path d="M66.7713 142.388H70.2293C73.8318 142.389 77.3106 141.074 80.0115 138.69C82.7124 136.306 84.4496 133.018 84.8963 129.443L88.5907 99.8876C88.8506 97.8081 88.6652 95.6972 88.0469 93.6949C87.4285 91.6926 86.3914 89.8446 85.0043 88.2738C83.6172 86.7029 81.9119 85.445 80.0015 84.5836C78.0911 83.7222 76.0194 83.2769 73.9238 83.2774H63.0769C60.9813 83.2769 58.9095 83.7222 56.9991 84.5836C55.0887 85.445 53.3834 86.7029 51.9963 88.2738C50.6093 89.8446 49.5721 91.6926 48.9538 93.6949C48.3355 95.6972 48.1501 97.8081 48.41 99.8876L52.1044 129.443C52.5511 133.018 54.2882 136.306 56.9892 138.69C59.6901 141.074 63.1688 142.389 66.7713 142.388ZM53.7226 46.3329C53.7226 50.2523 55.2795 54.011 58.0509 56.7824C60.8222 59.5538 64.581 61.1107 68.5003 61.1107C72.4196 61.1107 76.1784 59.5538 78.9498 56.7824C81.7212 54.011 83.2781 50.2523 83.2781 46.3329C83.2781 42.4136 81.7212 38.6549 78.9498 35.8835C76.1784 33.1121 72.4196 31.5552 68.5003 31.5552C64.581 31.5552 60.8222 33.1121 58.0509 35.8835C55.2795 38.6549 53.7226 42.4136 53.7226 46.3329Z" stroke="#0075FF" stroke-width="3" stroke-linecap="round" stroke-linejoin="round"/>
</svg>
