<svg width="138" height="135" viewBox="0 0 138 135" fill="none" xmlns="http://www.w3.org/2000/svg">
<path fill-rule="evenodd" clip-rule="evenodd" d="M2 66.0488C2 30.3314 32.3478 2 69 2C105.652 2 136 30.3314 136 66.0488C136 75.5373 133.83 84.5631 129.951 92.6701C127.682 97.4176 121.688 98.5406 117.317 95.615L114.608 93.8028C110.932 91.3397 110.045 86.3689 111.8 82.3075C114.02 77.1749 115.163 71.641 115.157 66.0488C115.157 42.5924 94.9928 22.6902 69 22.6902C43.0072 22.6902 22.8434 42.5924 22.8434 66.0488C22.8434 71.7853 24.0302 77.2729 26.203 82.3075C27.9545 86.3721 27.0676 91.3365 23.3921 93.8028L20.6802 95.615C16.3093 98.5438 10.3176 97.4176 8.04595 92.6701C4.06419 84.3605 1.9981 75.2632 2 66.0488Z" fill="white"/>
<path d="M82.3745 90.7431C87.1084 87.8312 90.7624 83.4537 92.7815 78.2756C94.8006 73.0976 95.0744 67.402 93.5613 62.0541C92.0482 56.7063 88.8308 51.9985 84.3981 48.6459C79.9653 45.2933 74.5594 43.4792 69.0016 43.4792C63.4438 43.4792 58.0379 45.2933 53.6052 48.6459C49.1724 51.9985 45.9551 56.7063 44.4419 62.0541C42.9288 67.402 43.2026 73.0976 45.2217 78.2756C47.2408 83.4537 50.8948 87.8312 55.6287 90.7431C43.3614 95.7043 34.0707 107.283 31.4577 121.474C30.5101 126.626 33.4581 130.831 38.6586 131.486C44.1845 132.181 53.472 132.81 69.0032 132.81C84.5344 132.81 93.8251 132.181 99.351 131.486C104.551 130.831 107.496 126.626 106.549 121.474C103.936 107.279 94.6451 95.6979 82.3745 90.7431Z" fill="#1E1E1E"/>
<path d="M82.3745 90.7431C87.1084 87.8312 90.7624 83.4537 92.7815 78.2756C94.8006 73.0976 95.0744 67.402 93.5613 62.0541C92.0481 56.7063 88.8308 51.9985 84.3981 48.6459C79.9653 45.2933 74.5594 43.4792 69.0016 43.4792C63.4438 43.4792 58.0379 45.2933 53.6052 48.6459C49.1724 51.9985 45.9551 56.7063 44.4419 62.0541C42.9288 67.402 43.2026 73.0976 45.2217 78.2756C47.2408 83.4537 50.8948 87.8312 55.6287 90.7431C43.3613 95.7043 34.0707 107.283 31.4577 121.474C30.5101 126.626 33.4581 130.831 38.6586 131.486C44.1845 132.181 53.472 132.81 69.0032 132.81C84.5344 132.81 93.8251 132.181 99.351 131.486C104.548 130.831 107.496 126.626 106.549 121.474C103.936 107.279 94.6451 95.6979 82.3745 90.7431Z" stroke="#FF2C00" stroke-width="4" stroke-linecap="round" stroke-linejoin="round"/>
<path d="M2 66.0488C2 30.3314 32.3478 2 69 2C105.652 2 136 30.3314 136 66.0488C136 75.5373 133.83 84.5631 129.951 92.6701C127.682 97.4176 121.688 98.5406 117.317 95.6149L114.608 93.8028C110.932 91.3397 110.045 86.369 111.8 82.3075C114.02 77.1749 115.163 71.641 115.157 66.0488C115.157 42.5924 94.9928 22.6902 69 22.6902C43.0072 22.6902 22.8434 42.5924 22.8434 66.0488C22.8434 71.7853 24.0302 77.2729 26.203 82.3075C27.9545 86.3721 27.0676 91.3365 23.3921 93.8028L20.6802 95.6149C16.3093 98.5438 10.3176 97.4176 8.04595 92.6701C4.06419 84.3605 1.9981 75.2632 2 66.0488Z" stroke="#FF2C00" stroke-width="4" stroke-linecap="round" stroke-linejoin="round"/>
</svg>
